<svg width="198" height="61" viewBox="0 0 198 61" fill="none" xmlns="http://www.w3.org/2000/svg">
<rect width="197" height="60" transform="translate(0.251953 0.266357)" fill="#0152A8"/>
<path d="M42.5304 24.63H44.661L48.3656 33.6754H48.502L52.2065 24.63H54.3372V36.2664H52.6667V27.8459H52.5588L49.127 36.2493H47.7406L44.3088 27.8402H44.2008V36.2664H42.5304V24.63ZM60.4295 36.4425C59.6113 36.4425 58.8973 36.255 58.2875 35.88C57.6776 35.505 57.2041 34.9804 56.867 34.3061C56.5299 33.6319 56.3613 32.844 56.3613 31.9425C56.3613 31.0372 56.5299 30.2455 56.867 29.5675C57.2041 28.8895 57.6776 28.3629 58.2875 27.9879C58.8973 27.6129 59.6113 27.4254 60.4295 27.4254C61.2477 27.4254 61.9617 27.6129 62.5716 27.9879C63.1814 28.3629 63.6549 28.8895 63.992 29.5675C64.3291 30.2455 64.4977 31.0372 64.4977 31.9425C64.4977 32.844 64.3291 33.6319 63.992 34.3061C63.6549 34.9804 63.1814 35.505 62.5716 35.88C61.9617 36.255 61.2477 36.4425 60.4295 36.4425ZM60.4352 35.0164C60.9655 35.0164 61.4049 34.8762 61.7534 34.5959C62.1019 34.3156 62.3594 33.9425 62.5261 33.4766C62.6966 33.0107 62.7818 32.4974 62.7818 31.9368C62.7818 31.38 62.6966 30.8686 62.5261 30.4027C62.3594 29.933 62.1019 29.5561 61.7534 29.272C61.4049 28.9879 60.9655 28.8459 60.4352 28.8459C59.9011 28.8459 59.4579 28.9879 59.1056 29.272C58.7572 29.5561 58.4977 29.933 58.3272 30.4027C58.1606 30.8686 58.0772 31.38 58.0772 31.9368C58.0772 32.4974 58.1606 33.0107 58.3272 33.4766C58.4977 33.9425 58.7572 34.3156 59.1056 34.5959C59.4579 34.8762 59.9011 35.0164 60.4352 35.0164ZM66.394 36.2664V27.5391H68.036V28.9254H68.127C68.286 28.4558 68.5663 28.0864 68.9679 27.8175C69.3732 27.5448 69.8315 27.4084 70.3429 27.4084C70.4489 27.4084 70.5739 27.4122 70.7179 27.4198C70.8656 27.4273 70.9811 27.4368 71.0645 27.4482V29.0732C70.9963 29.0542 70.8751 29.0334 70.7008 29.0107C70.5266 28.9842 70.3523 28.9709 70.1781 28.9709C69.7766 28.9709 69.4186 29.0561 69.1042 29.2266C68.7936 29.3933 68.5474 29.6262 68.3656 29.9254C68.1838 30.2209 68.0929 30.558 68.0929 30.9368V36.2664H66.394ZM75.9835 36.4425C75.1236 36.4425 74.3831 36.2588 73.7619 35.8914C73.1445 35.5201 72.6672 34.9993 72.3301 34.3289C71.9967 33.6546 71.8301 32.8648 71.8301 31.9595C71.8301 31.0656 71.9967 30.2777 72.3301 29.5959C72.6672 28.9141 73.1369 28.3819 73.7392 27.9993C74.3452 27.6167 75.0536 27.4254 75.8642 27.4254C76.3566 27.4254 76.8339 27.5069 77.296 27.6698C77.7581 27.8326 78.1729 28.0883 78.5403 28.4368C78.9077 28.7853 79.1975 29.2379 79.4096 29.7948C79.6217 30.3478 79.7278 31.0201 79.7278 31.8118V32.4141H72.7903V31.1414H78.063C78.063 30.6944 77.9721 30.2986 77.7903 29.9539C77.6085 29.6054 77.3528 29.3308 77.0233 29.13C76.6975 28.9292 76.3149 28.8289 75.8755 28.8289C75.3983 28.8289 74.9816 28.9463 74.6255 29.1811C74.2733 29.4122 74.0005 29.7152 73.8074 30.0902C73.618 30.4614 73.5233 30.8648 73.5233 31.3004V32.2948C73.5233 32.8781 73.6255 33.3743 73.8301 33.7834C74.0384 34.1925 74.3282 34.505 74.6994 34.7209C75.0706 34.933 75.5043 35.0391 76.0005 35.0391C76.3225 35.0391 76.6161 34.9936 76.8812 34.9027C77.1464 34.808 77.3755 34.6679 77.5687 34.4823C77.7619 34.2967 77.9096 34.0675 78.0119 33.7948L79.6199 34.0845C79.4911 34.558 79.26 34.9728 78.9267 35.3289C78.5971 35.6811 78.1824 35.9558 77.6824 36.1527C77.1861 36.3459 76.6199 36.4425 75.9835 36.4425ZM86.9664 36.2664H85.1028L89.2903 24.63H91.3187L95.5062 36.2664H93.6426L90.3528 26.7436H90.2619L86.9664 36.2664ZM87.2789 31.7095H93.3244V33.1868H87.2789V31.7095ZM97.1866 36.2664V24.63H98.8855V28.9539H98.9877C99.0862 28.772 99.2283 28.5618 99.4139 28.3232C99.5995 28.0845 99.8571 27.8762 100.187 27.6982C100.516 27.5164 100.952 27.4254 101.493 27.4254C102.198 27.4254 102.827 27.6035 103.38 27.9595C103.933 28.3156 104.367 28.8289 104.681 29.4993C104.999 30.1698 105.158 30.9766 105.158 31.9198C105.158 32.8629 105.001 33.6717 104.687 34.3459C104.372 35.0164 103.94 35.5334 103.391 35.897C102.842 36.2569 102.215 36.4368 101.51 36.4368C100.98 36.4368 100.546 36.3478 100.209 36.1698C99.876 35.9917 99.6146 35.7834 99.4252 35.5448C99.2359 35.3061 99.09 35.094 98.9877 34.9084H98.8457V36.2664H97.1866ZM98.8514 31.9027C98.8514 32.5164 98.9404 33.0542 99.1184 33.5164C99.2965 33.9785 99.554 34.3402 99.8912 34.6016C100.228 34.8592 100.641 34.9879 101.13 34.9879C101.637 34.9879 102.062 34.8535 102.403 34.5845C102.743 34.3118 103.001 33.9425 103.175 33.4766C103.353 33.0107 103.442 32.4861 103.442 31.9027C103.442 31.327 103.355 30.8099 103.181 30.3516C103.01 29.8933 102.753 29.5315 102.408 29.2664C102.067 29.0012 101.641 28.8686 101.13 28.8686C100.637 28.8686 100.221 28.9955 99.8798 29.2493C99.5427 29.5031 99.287 29.8573 99.1127 30.3118C98.9385 30.7664 98.8514 31.2967 98.8514 31.9027ZM110.742 36.4425C109.924 36.4425 109.21 36.255 108.6 35.88C107.99 35.505 107.517 34.9804 107.18 34.3061C106.842 33.6319 106.674 32.844 106.674 31.9425C106.674 31.0372 106.842 30.2455 107.18 29.5675C107.517 28.8895 107.99 28.3629 108.6 27.9879C109.21 27.6129 109.924 27.4254 110.742 27.4254C111.56 27.4254 112.274 27.6129 112.884 27.9879C113.494 28.3629 113.967 28.8895 114.305 29.5675C114.642 30.2455 114.81 31.0372 114.81 31.9425C114.81 32.844 114.642 33.6319 114.305 34.3061C113.967 34.9804 113.494 35.505 112.884 35.88C112.274 36.255 111.56 36.4425 110.742 36.4425ZM110.748 35.0164C111.278 35.0164 111.717 34.8762 112.066 34.5959C112.414 34.3156 112.672 33.9425 112.839 33.4766C113.009 33.0107 113.094 32.4974 113.094 31.9368C113.094 31.38 113.009 30.8686 112.839 30.4027C112.672 29.933 112.414 29.5561 112.066 29.272C111.717 28.9879 111.278 28.8459 110.748 28.8459C110.214 28.8459 109.77 28.9879 109.418 29.272C109.07 29.5561 108.81 29.933 108.64 30.4027C108.473 30.8686 108.39 31.38 108.39 31.9368C108.39 32.4974 108.473 33.0107 108.64 33.4766C108.81 33.9425 109.07 34.3156 109.418 34.5959C109.77 34.8762 110.214 35.0164 110.748 35.0164ZM122.235 32.647V27.5391H123.939V36.2664H122.269V34.755H122.178C121.977 35.2209 121.655 35.6092 121.212 35.9198C120.773 36.2266 120.225 36.38 119.57 36.38C119.01 36.38 118.513 36.2569 118.081 36.0107C117.653 35.7607 117.316 35.3914 117.07 34.9027C116.828 34.4141 116.706 33.8099 116.706 33.0902V27.5391H118.405V32.8857C118.405 33.4804 118.57 33.9539 118.9 34.3061C119.229 34.6584 119.657 34.8345 120.184 34.8345C120.502 34.8345 120.818 34.755 121.133 34.5959C121.451 34.4368 121.714 34.1963 121.922 33.8743C122.135 33.5523 122.239 33.1433 122.235 32.647ZM130.296 27.5391V28.9027H125.529V27.5391H130.296ZM126.807 25.4482H128.506V33.7039C128.506 34.0334 128.555 34.2815 128.654 34.4482C128.752 34.6111 128.879 34.7228 129.035 34.7834C129.194 34.8402 129.366 34.8686 129.552 34.8686C129.688 34.8686 129.807 34.8592 129.91 34.8402C130.012 34.8213 130.091 34.8061 130.148 34.7948L130.455 36.1982C130.357 36.2361 130.216 36.2739 130.035 36.3118C129.853 36.3535 129.626 36.3762 129.353 36.38C128.906 36.3876 128.489 36.308 128.103 36.1414C127.716 35.9747 127.404 35.7171 127.165 35.3686C126.927 35.0201 126.807 34.5826 126.807 34.0561V25.4482ZM144.029 24.63H145.79V32.2834C145.79 33.0978 145.599 33.8194 145.216 34.4482C144.834 35.0732 144.296 35.5656 143.603 35.9254C142.91 36.2815 142.097 36.4595 141.165 36.4595C140.237 36.4595 139.427 36.2815 138.733 35.9254C138.04 35.5656 137.502 35.0732 137.12 34.4482C136.737 33.8194 136.546 33.0978 136.546 32.2834V24.63H138.302V32.1414C138.302 32.6679 138.417 33.1357 138.648 33.5448C138.883 33.9539 139.215 34.2758 139.643 34.5107C140.071 34.7417 140.578 34.8573 141.165 34.8573C141.756 34.8573 142.266 34.7417 142.694 34.5107C143.126 34.2758 143.455 33.9539 143.682 33.5448C143.913 33.1357 144.029 32.6679 144.029 32.1414V24.63ZM154.746 29.6698L153.206 29.9425C153.142 29.7455 153.04 29.558 152.9 29.38C152.763 29.202 152.578 29.0561 152.343 28.9425C152.108 28.8289 151.814 28.772 151.462 28.772C150.981 28.772 150.58 28.88 150.258 29.0959C149.936 29.308 149.775 29.5826 149.775 29.9198C149.775 30.2114 149.883 30.4463 150.099 30.6243C150.314 30.8023 150.663 30.9482 151.144 31.0618L152.53 31.38C153.333 31.5656 153.932 31.8516 154.326 32.2379C154.72 32.6243 154.917 33.1262 154.917 33.7436C154.917 34.2664 154.765 34.7323 154.462 35.1414C154.163 35.5467 153.744 35.8648 153.206 36.0959C152.672 36.327 152.053 36.4425 151.349 36.4425C150.371 36.4425 149.574 36.2342 148.956 35.8175C148.339 35.397 147.96 34.8004 147.82 34.0277L149.462 33.7777C149.564 34.2058 149.775 34.5296 150.093 34.7493C150.411 34.9652 150.826 35.0732 151.337 35.0732C151.894 35.0732 152.339 34.9576 152.672 34.7266C153.006 34.4917 153.172 34.2058 153.172 33.8686C153.172 33.5959 153.07 33.3667 152.866 33.1811C152.665 32.9955 152.356 32.8554 151.939 32.7607L150.462 32.4368C149.648 32.2512 149.046 31.9558 148.655 31.5504C148.269 31.1451 148.076 30.6319 148.076 30.0107C148.076 29.4955 148.22 29.0448 148.508 28.6584C148.796 28.272 149.193 27.9709 149.701 27.755C150.208 27.5353 150.79 27.4254 151.445 27.4254C152.388 27.4254 153.131 27.63 153.672 28.0391C154.214 28.4444 154.572 28.9879 154.746 29.6698Z" fill="white"/>
</svg>
