<svg width="18" height="14" viewBox="0 0 18 14" fill="none" xmlns="http://www.w3.org/2000/svg">
<path d="M15.4064 0.232422H2.23859C1.65672 0.233025 1.09887 0.457433 0.687428 0.856405C0.275988 1.25538 0.0445677 1.79633 0.0439453 2.36056V11.4811C0.0445677 12.0454 0.275988 12.5863 0.687428 12.9853C1.09887 13.3843 1.65672 13.6087 2.23859 13.6093H15.4064C15.9883 13.6087 16.5462 13.3843 16.9576 12.9853C17.369 12.5863 17.6005 12.0454 17.6011 11.4811V2.36056C17.6005 1.79633 17.369 1.25538 16.9576 0.856405C16.5462 0.457433 15.9883 0.233025 15.4064 0.232422ZM14.8507 3.75259L9.20736 8.00886C9.09731 8.09182 8.9619 8.13685 8.82251 8.13685C8.68312 8.13685 8.54771 8.09182 8.43766 8.00886L2.7943 3.75259C2.728 3.70403 2.6723 3.64319 2.63046 3.57358C2.58862 3.50397 2.56146 3.427 2.55056 3.34713C2.53966 3.26725 2.54524 3.18608 2.56697 3.10831C2.58871 3.03055 2.62616 2.95775 2.67716 2.89414C2.72816 2.83054 2.79169 2.7774 2.86405 2.7378C2.93641 2.69821 3.01617 2.67296 3.09868 2.66352C3.1812 2.65407 3.26482 2.66063 3.3447 2.68279C3.42458 2.70496 3.49912 2.7423 3.56399 2.79265L8.82251 6.75858L14.081 2.79265C14.2125 2.69636 14.3778 2.65412 14.5412 2.67508C14.7045 2.69604 14.8528 2.77851 14.9539 2.90465C15.0551 3.03079 15.1009 3.19046 15.0816 3.34914C15.0623 3.50782 14.9794 3.65275 14.8507 3.75259Z" fill="#0152A8"/>
</svg>
