<svg width="16" height="16" viewBox="0 0 16 16" fill="none" xmlns="http://www.w3.org/2000/svg">
<path d="M15.9487 11.5577C15.7709 11.3684 15.1433 10.8085 13.9895 10.0679C12.8273 9.32073 11.9701 8.85488 11.7242 8.74625C11.7026 8.73663 11.6787 8.73311 11.6552 8.73605C11.6317 8.73899 11.6094 8.74828 11.5907 8.76293C11.1947 9.0718 10.5279 9.63914 10.4922 9.66979C10.2613 9.86764 10.2613 9.86764 10.0723 9.806C9.7399 9.69703 8.70738 9.14876 7.80767 8.24702C6.90796 7.34527 6.33142 6.28721 6.22245 5.95519C6.16013 5.76585 6.16013 5.76585 6.35866 5.53496C6.38931 5.49921 6.957 4.83243 7.26587 4.43672C7.28052 4.41809 7.28981 4.39582 7.29275 4.3723C7.29569 4.34878 7.29217 4.3249 7.28255 4.30323C7.17392 4.05702 6.70806 3.20023 5.96091 2.03797C5.21921 0.884561 4.66004 0.256948 4.4707 0.0791866C4.45333 0.0627907 4.43185 0.0513847 4.40854 0.0461707C4.38522 0.0409566 4.36093 0.0421274 4.33823 0.0495598C3.67638 0.277001 3.0378 0.567212 2.4312 0.916232C1.84561 1.25664 1.29121 1.64808 0.774463 2.08598C0.756425 2.10132 0.742901 2.12127 0.735342 2.14371C0.727782 2.16615 0.726474 2.19022 0.731555 2.21334C0.802728 2.54503 1.14293 3.92966 2.19861 5.84758C3.27574 7.805 4.02221 8.80788 5.60402 10.3842C7.18584 11.9606 8.22041 12.752 10.1799 13.8291C12.0978 14.8848 13.4831 15.2253 13.8141 15.2958C13.8373 15.3009 13.8614 15.2995 13.8839 15.292C13.9064 15.2844 13.9264 15.2709 13.9418 15.2529C14.3797 14.7362 14.771 14.1818 15.1113 13.5962C15.4602 12.9896 15.7504 12.351 15.9779 11.6892C15.9852 11.6667 15.9863 11.6426 15.9812 11.6195C15.976 11.5964 15.9648 11.575 15.9487 11.5577Z" fill="#0152A8"/>
</svg>
