<svg width="23" height="22" viewBox="0 0 23 22" fill="none" xmlns="http://www.w3.org/2000/svg">
<path d="M16.5033 1.97563C17.7321 1.97916 18.9096 2.45045 19.7785 3.28657C20.6473 4.12269 21.1371 5.25569 21.1408 6.43813V15.3622C21.1371 16.5446 20.6473 17.6776 19.7785 18.5137C18.9096 19.3499 17.7321 19.8211 16.5033 19.8247H7.22943C6.00063 19.8211 4.82321 19.3499 3.95432 18.5137C3.08542 17.6776 2.59566 16.5446 2.59199 15.3622V6.43813C2.59566 5.25569 3.08542 4.12269 3.95432 3.28657C4.82321 2.45045 6.00063 1.97916 7.22943 1.97563H16.5033ZM16.5033 0.190918H7.22943C3.65869 0.190918 0.737305 3.00209 0.737305 6.43813V15.3622C0.737305 18.7982 3.65869 21.6094 7.22943 21.6094H16.5033C20.0741 21.6094 22.9955 18.7982 22.9955 15.3622V6.43813C22.9955 3.00209 20.0741 0.190918 16.5033 0.190918Z" fill="#0152A8"/>
<path d="M17.8944 6.43854C17.6192 6.43854 17.3503 6.36003 17.1215 6.21294C16.8927 6.06584 16.7144 5.85677 16.6091 5.61217C16.5038 5.36756 16.4763 5.0984 16.53 4.83873C16.5837 4.57905 16.7161 4.34053 16.9107 4.15331C17.1053 3.9661 17.3531 3.83861 17.623 3.78695C17.8928 3.7353 18.1726 3.76181 18.4267 3.86313C18.6809 3.96445 18.8982 4.13603 19.0511 4.35617C19.2039 4.57631 19.2855 4.83512 19.2855 5.09989C19.2859 5.27579 19.2502 5.45003 19.1804 5.61261C19.1107 5.7752 19.0082 5.92292 18.8789 6.0473C18.7497 6.17168 18.5962 6.27027 18.4272 6.33741C18.2583 6.40455 18.0772 6.43892 17.8944 6.43854ZM11.8663 7.33066C12.6 7.33066 13.3173 7.54003 13.9274 7.9323C14.5375 8.32456 15.013 8.8821 15.2938 9.53442C15.5746 10.1867 15.648 10.9045 15.5049 11.597C15.3617 12.2895 15.0084 12.9256 14.4896 13.4249C13.9707 13.9241 13.3097 14.2641 12.5901 14.4019C11.8704 14.5396 11.1245 14.4689 10.4466 14.1987C9.76871 13.9285 9.18931 13.471 8.78166 12.8839C8.37402 12.2968 8.15644 11.6066 8.15644 10.9006C8.15749 9.95408 8.54869 9.04664 9.24419 8.37738C9.9397 7.70811 10.8827 7.33167 11.8663 7.33066ZM11.8663 5.54594C10.7657 5.54594 9.68989 5.85999 8.77481 6.44836C7.85972 7.03673 7.1465 7.87301 6.72534 8.85144C6.30417 9.82987 6.19397 10.9065 6.40868 11.9452C6.62339 12.9839 7.15336 13.938 7.93158 14.6868C8.70979 15.4357 9.7013 15.9457 10.7807 16.1523C11.8601 16.3589 12.979 16.2529 13.9958 15.8476C15.0125 15.4423 15.8816 14.756 16.493 13.8754C17.1045 12.9949 17.4308 11.9596 17.4308 10.9006C17.4308 9.48043 16.8446 8.11846 15.801 7.11428C14.7575 6.11009 13.3421 5.54594 11.8663 5.54594Z" fill="#0152A8"/>
</svg>
