<svg width="25" height="25" viewBox="0 0 25 25" fill="none" xmlns="http://www.w3.org/2000/svg">
<path d="M19.5893 17.251V6.68375C19.5905 6.38603 19.5328 6.09102 19.4195 5.81572C19.3061 5.54042 19.1394 5.2903 18.9288 5.07978C18.7183 4.86926 18.4682 4.70251 18.1929 4.58916C17.9176 4.4758 17.6226 4.41808 17.3249 4.41933H4.49316" stroke="#0152A8" stroke-linecap="round" stroke-linejoin="round"/>
<path d="M10.5312 10.4578H16.5697" stroke="#0152A8" stroke-linecap="round" stroke-linejoin="round"/>
<path d="M10.5312 13.4768H16.5697" stroke="#0152A8" stroke-linecap="round" stroke-linejoin="round"/>
<path d="M2.80406 8.19336C2.55963 7.91968 2.38537 7.59071 2.29628 7.23476C2.20718 6.8788 2.20593 6.50653 2.29262 6.14998C2.37931 5.79343 2.55134 5.46329 2.79392 5.18798C3.03649 4.91266 3.34234 4.70042 3.68513 4.56952C4.02793 4.43862 4.39739 4.39299 4.76173 4.43654C5.12607 4.4801 5.47437 4.61154 5.77665 4.81956C6.07892 5.02758 6.32612 5.30594 6.49696 5.63068C6.66779 5.95542 6.75716 6.31681 6.75735 6.68374V18.7606C6.75755 19.1276 6.84691 19.489 7.01775 19.8137C7.18859 20.1384 7.43579 20.4168 7.73806 20.6248C8.04034 20.8328 8.38863 20.9643 8.75297 21.0078C9.11732 21.0514 9.48678 21.0058 9.82958 20.8749C10.1724 20.744 10.4782 20.5317 10.7208 20.2564C10.9634 19.9811 11.1354 19.651 11.2221 19.2944C11.3088 18.9379 11.3075 18.5656 11.2184 18.2096C11.1293 17.8537 10.9551 17.5247 10.7107 17.251H21.2779C21.5694 17.5769 21.7603 17.9802 21.8276 18.4122C21.8949 18.8442 21.8356 19.2865 21.657 19.6856C21.4785 20.0847 21.1882 20.4235 20.8212 20.6612C20.4542 20.8989 20.0263 21.0253 19.5891 21.0251H9.02177" stroke="#0152A8" stroke-linecap="round" stroke-linejoin="round"/>
</svg>
