<svg width="23" height="18" viewBox="0 0 23 18" fill="none" xmlns="http://www.w3.org/2000/svg">
<path d="M22.0902 2.22475C21.2848 2.57446 20.4326 2.80485 19.5606 2.90865C20.477 2.37243 21.1662 1.52054 21.4988 0.512761C20.6324 1.01902 19.6861 1.37424 18.7005 1.5632C18.2854 1.12851 17.7862 0.782703 17.2332 0.546798C16.6803 0.310892 16.0851 0.189815 15.4838 0.190926C13.0495 0.190926 11.0796 2.13088 11.0796 4.5223C11.0778 4.85493 11.116 5.18658 11.1932 5.51015C9.44763 5.42838 7.73837 4.98341 6.17477 4.20371C4.61116 3.424 3.22764 2.32673 2.11272 0.982105C1.72158 1.64103 1.51472 2.39284 1.51377 3.15897C1.51377 4.66087 2.29791 5.98844 3.48195 6.76621C2.78044 6.74957 2.0933 6.56403 1.47888 6.22535V6.27898C1.47888 8.37986 2.99974 10.1276 5.01266 10.5254C4.63413 10.6263 4.24407 10.6774 3.85232 10.6774C3.57435 10.6779 3.29702 10.6509 3.02435 10.5969C3.58394 12.3179 5.21261 13.5695 7.14187 13.6052C5.5742 14.8125 3.64952 15.465 1.67033 15.4602C1.31902 15.4597 0.96803 15.4388 0.619141 15.3977C2.63258 16.6824 4.97304 17.362 7.36195 17.3555C15.4744 17.3555 19.9064 10.7534 19.9064 5.0274C19.9064 4.83966 19.9015 4.65193 19.8925 4.46866C20.7528 3.8572 21.497 3.09733 22.0902 2.22475Z" fill="#0152A8"/>
</svg>
